#!OML:ASF F:\VICON\USERDATA\INSTALL\rory3\rory3.ASF
:FULLY-SPECIFIED
:DEGREES
719
root -13.3816 17.8056 15.2848 279.271 86.1422 -82.7486
lowerback 13.4935 6.55368 7.76598
upperback 1.7334 9.79549 -1.92891
thorax -4.00605 4.77773 -7.88132
lowerneck -14.9666 5.58647 -7.42523
upperneck 46.5945 16.734 1.08011
head 20.3052 6.42392 5.60758
rclavicle 3.6477e-014 -3.8763e-014
rhumerus -29.4693 -3.62489 -80.4531
rradius 46.6476
rwrist 2.57305
rhand -14.9204 9.09885
rfingers 7.12502
rthumb 11.2415 -20.5799
lclavicle 3.6477e-014 -3.8763e-014
lhumerus -42.7809 17.9865 73.849
lradius 36.8263
lwrist -2.98114
lhand -18.9147 26.4856
lfingers 7.12502
lthumb 7.38748 56.3366
rfemur -2.25802 -5.53726 20.481
rtibia 23.0857
rfoot -15.1696 -12.3602
rtoes -12.3571
lfemur -24.6537 -13.5432 -14.4987
ltibia 41.3994
lfoot -12.2727 -9.08079
ltoes 1.74147
720
root -13.4112 17.8057 15.2575 290.866 85.5702 -70.9824
lowerback 13.3984 6.44177 8.06913
upperback 1.80009 9.69068 -1.73207
thorax -3.88741 4.73091 -7.80511
lowerneck -15.0068 5.57038 -7.50116
upperneck 46.574 16.6267 1.10832
head 20.2934 6.35631 5.60784
rclavicle -2.3556e-014 3.69739e-014
rhumerus -29.3963 -3.7153 -80.2367
rradius 46.4262
rwrist 2.53259
rhand -15.2064 8.67481
rfingers 7.12502
rthumb 10.9657 -21.0188
lclavicle -2.3556e-014 3.69739e-014
lhumerus -42.8065 17.2857 74.3739
lradius 36.9254
lwrist -2.37463
lhand -19.0697 26.5563
lfingers 7.12502
lthumb 7.23786 56.4125
rfemur -2.23062 -4.976 20.7142
rtibia 22.9751
rfoot -14.9648 -11.9226
rtoes -12.5147
lfemur -24.4936 -14.3597 -13.9912
ltibia 42.2602
lfoot -12.2694 -10.2181
ltoes 1.34577
721
root -13.4347 17.8077 15.2342 303.673 85.5318 -58.2402
lowerback 13.02 6.4052 7.48608
upperback 1.82045 9.52673 -1.73442
thorax -3.7839 4.66275 -7.41691
lowerneck -15.0956 5.55808 -7.64674
upperneck 46.7098 16.5421 1.30269
head 20.3646 6.29715 5.72345
rclavicle 3.72721e-015 1.55052e-014
rhumerus -29.4061 -3.85477 -79.9693
rradius 46.2684
rwrist 2.71275
rhand -15.0687 8.54479
rfingers 7.12502
rthumb 11.0985 -21.1417
lclavicle 3.72721e-015 1.55052e-014
lhumerus -42.8443 16.6397 74.865
lradius 36.9648
lwrist -2.06446
lhand -19.5651 26.3111
lfingers 7.12502
lthumb 6.75966 56.1832
rfemur -2.48509 -4.52076 20.1116
rtibia 22.9342
rfoot -14.834 -11.4184
rtoes -12.694
lfemur -24.5398 -15.1875 -14.281
ltibia 43.0708
lfoot -12.2892 -11.3637
ltoes -0.0623269
722
root -13.461 17.8038 15.201 311.421 84.8796 -50.1584
lowerback 13.2204 6.3078 7.61046
upperback 1.85438 9.4349 -1.61823
thorax -3.87349 4.61113 -7.37938
lowerneck -15.0833 5.54163 -7.74782
upperneck 46.7814 16.3952 1.50533
head 20.3673 6.23594 5.80842
rclavicle 2.38045e-014 -2.04748e-014
rhumerus -29.5299 -4.15118 -79.6687
rradius 46.1245
rwrist 2.83164
rhand -14.6729 9.14437
rfingers 7.12502
rthumb 11.4803 -20.5213
lclavicle 2.38045e-014 -2.04748e-014
lhumerus -42.9815 16.0093 75.2974
lradius 37.1049
lwrist -1.91179
lhand -19.5914 25.9744
lfingers 7.12502
lthumb 6.73425 55.8473
rfemur -2.28131 -4.03275 20.0362
rtibia 22.8132
rfoot -14.7391 -10.8937
rtoes -12.5014
lfemur -24.1392 -15.9192 -14.1374
ltibia 43.8987
lfoot -12.4708 -12.4925
ltoes -1.98583
723
root -13.4899 17.8025 15.1605 316.843 83.895 -44.216
lowerback 13.6916 6.22387 7.97697
upperback 1.92994 9.42279 -1.43015
thorax -4.02622 4.59407 -7.44136
lowerneck -15.0742 5.52207 -7.8558
upperneck 46.7291 16.2563 1.58434
head 20.3071 6.16687 5.82336
rclavicle -5.48646e-014 6.36111e-015
rhumerus -29.5772 -4.37925 -79.3479
rradius 45.9064
rwrist 2.80457
rhand -14.6097 9.3447
rfingers 7.12502
rthumb 11.5412 -20.3175
lclavicle -5.48646e-014 6.36111e-015
lhumerus -43.1442 15.6251 75.6878
lradius 37.2747
lwrist -2.23855
lhand -19.8623 26.1546
lfingers 7.12502
lthumb 6.47279 56.0357
rfemur -1.98106 -3.33717 20.1796
rtibia 22.8589
rfoot -14.7397 -10.3761
rtoes -12.0755
lfemur -23.446 -16.5818 -13.8528
ltibia 44.6282
lfoot -12.489 -13.6459
ltoes -2.49152
724
root -13.5159 17.8085 15.1192 325.09 83.0607 -35.8294
lowerback 13.7418 6.28649 7.73616
upperback 1.91249 9.47213 -1.4468
thorax -4.09957 4.61575 -7.34365
lowerneck -15.0589 5.49247 -7.92929
upperneck 46.6886 16.0539 1.73449
head 20.2472 6.08834 5.85583
rclavicle -4.99943e-014 1.59028e-015
rhumerus -29.6159 -4.65163 -79.066
rradius 45.6151
rwrist 2.88023
rhand -15.136 8.87142
rfingers 7.12502
rthumb 11.0336 -20.8186
lclavicle -4.99943e-014 1.59028e-015
lhumerus -43.2423 15.1556 75.9912
lradius 37.388
lwrist -2.58318
lhand -20.2555 26.5019
lfingers 7.12502
lthumb 6.09314 56.3943
rfemur -2.16339 -2.52059 19.7841
rtibia 22.9153
rfoot -14.6173 -9.79176
rtoes -12.0227
lfemur -23.1382 -17.1411 -14.0155
ltibia 45.3033
lfoot -12.0193 -15.0336
ltoes -0.463873
725
root -13.5356 17.8137 15.0758 332.045 82.2371 -28.9156
lowerback 13.5662 6.37425 7.44309
upperback 1.81015 9.52418 -1.58628
thorax -4.12674 4.63909 -7.32138
lowerneck -14.8481 5.48325 -7.80927
upperneck 46.5218 15.764 1.85062
head 20.0732 6.02498 5.79378
rclavicle -1.30204e-014 1.11319e-014
rhumerus -29.7394 -5.07314 -78.8528
rradius 45.3607
rwrist 2.99899
rhand -15.462 8.54884
rfingers 7.12502
rthumb 10.7191 -21.1577
lclavicle -1.30204e-014 1.11319e-014
lhumerus -43.3534 14.5143 76.0726
lradius 37.5217
lwrist -2.64355
lhand -20.0097 26.4382
lfingers 7.12502
lthumb 6.33042 56.3236
rfemur -2.57637 -2.05931 19.2203
rtibia 23.0095
rfoot -14.5065 -9.02024
rtoes -12.7489
lfemur -23.0406 -17.642 -14.2785
ltibia 45.9417
lfoot -11.6164 -16.3314
ltoes 0.211675
726
root -13.551 17.8149 15.0318 336.042 81.2165 -24.8167
lowerback 13.5113 6.40359 7.45088
upperback 1.75333 9.55593 -1.66413
thorax -4.13664 4.65162 -7.40791
lowerneck -14.7635 5.4721 -7.65571
upperneck 46.4957 15.5506 1.9421
head 20.0404 5.97391 5.75958
rclavicle 3.44394e-014 -1.27222e-014
rhumerus -29.8323 -5.49714 -78.7205
rradius 45.1412
rwrist 2.99561
rhand -15.5231 8.47339
rfingers 7.12502
rthumb 10.6602 -21.2362
lclavicle 3.44394e-014 -1.27222e-014
lhumerus -43.4602 14.0772 76.0532
lradius 37.5914
lwrist -2.90297
lhand -20.2613 26.3083
lfingers 7.12502
lthumb 6.08752 56.2008
rfemur -2.81617 -1.79652 18.8857
rtibia 23.1226
rfoot -14.4122 -8.14174
rtoes -13.5769
lfemur -22.7421 -18.3042 -14.3521
ltibia 46.5729
lfoot -11.4003 -17.2862
ltoes -0.277016
727
root -13.5668 17.8176 14.988 338.628 79.9114 -22.1545
lowerback 13.4801 6.48463 7.58392
upperback 1.68725 9.67956 -1.67149
thorax -4.14534 4.70726 -7.50234
lowerneck -14.7379 5.42886 -7.52429
upperneck 46.5343 15.3897 1.92556
head 20.0877 5.91593 5.70314
rclavicle -5.14355e-014 -1.63003e-014
rhumerus -29.9187 -5.71991 -78.6042
rradius 44.932
rwrist 2.73328
rhand -15.7707 8.31925
rfingers 7.12502
rthumb 10.4214 -21.4025
lclavicle -5.14355e-014 -1.63003e-014
lhumerus -43.5342 13.6983 76.1232
lradius 37.5651
lwrist -3.08515
lhand -21.2407 26.0632
lfingers 7.12502
lthumb 5.14193 55.9808
rfemur -3.05996 -1.34673 18.7746
rtibia 23.1528
rfoot -14.2452 -7.28146
rtoes -14.166
lfemur -22.4341 -18.8653 -14.2123
ltibia 47.2176
lfoot -11.0242 -18.1109
ltoes 0.299236
728
root -13.5841 17.8183 14.9419 340.26 78.5507 -20.4976
lowerback 13.4046 6.59331 7.74803
upperback 1.63653 9.84409 -1.60292
thorax -4.11433 4.78544 -7.52934
lowerneck -14.7302 5.36273 -7.51279
upperneck 46.5452 15.2245 1.91314
head 20.109 5.83886 5.66438
rclavicle 3.41413e-014 -2.28602e-014
rhumerus -29.9413 -6.02228 -78.3135
rradius 44.674
rwrist 2.70481
rhand -15.897 8.38121
rfingers 7.12502
rthumb 10.2995 -21.3466
lclavicle 3.41413e-014 -2.28602e-014
lhumerus -43.5202 13.326 76.3334
lradius 37.4396
lwrist -3.11338
lhand -21.6571 25.7827
lfingers 7.12502
lthumb 4.7399 55.7096
rfemur -3.30432 -0.891002 18.7691
rtibia 23.0756
rfoot -14.0212 -6.46252
rtoes -14.7082
lfemur -22.1573 -19.1973 -13.9641
ltibia 47.8482
lfoot -10.4139 -19.1727
ltoes 2.16039
729
root -13.598 17.8138 14.8916 341.567 77.3843 -19.0924
lowerback 13.3152 6.60147 7.80446
upperback 1.649 9.86101 -1.46263
thorax -4.0654 4.79552 -7.39909
lowerneck -14.7849 5.3163 -7.85852
upperneck 46.6784 15.1181 2.19222
head 20.1397 5.75674 5.84528
rclavicle -2.37051e-014 3.16068e-014
rhumerus -29.9026 -6.29178 -77.9252
rradius 44.4479
rwrist 2.87684
rhand -15.6365 8.43067
rfingers 7.12502
rthumb 10.5508 -21.2845
lclavicle -2.37051e-014 3.16068e-014
lhumerus -43.5556 13.3138 76.507
lradius 37.2283
lwrist -3.35582
lhand -21.641 25.6172
lfingers 7.12502
lthumb 4.75543 55.5438
rfemur -3.44773 -0.634204 18.6421
rtibia 22.9851
rfoot -13.8466 -5.54152
rtoes -14.8717
lfemur -21.7783 -19.7389 -13.8679
ltibia 48.4219
lfoot -9.76784 -20.2475
ltoes 3.60901
730
root -13.6072 17.8129 14.8375 342.911 76.1117 -17.7142
lowerback 13.1889 6.64482 7.87173
upperback 1.61382 9.92057 -1.38937
thorax -4.02555 4.82428 -7.34832
lowerneck -15.0317 5.19589 -8.15894
upperneck 47.1646 14.9222 2.69136
head 20.4547 5.6411 6.17576
rclavicle -3.70236e-014 1.66979e-014
rhumerus -29.9192 -6.597 -77.6916
rradius 44.2446
rwrist 3.00669
rhand -15.596 8.37405
rfingers 7.12502
rthumb 10.5898 -21.3391
lclavicle -3.70236e-014 1.66979e-014
lhumerus -43.6369 13.3948 76.4729
lradius 37.0847
lwrist -3.65287
lhand -21.1878 25.7101
lfingers 7.12502
lthumb 5.19299 55.6265
rfemur -3.70367 -0.158511 18.4809
rtibia 22.9454
rfoot -13.7267 -4.58849
rtoes -14.6333
lfemur -21.4204 -20.3405 -13.7777
ltibia 48.9255
lfoot -8.86997 -21.223
ltoes 5.11947
731
root -13.6149 17.8108 14.7838 344.268 74.6763 -16.3989
lowerback 12.9828 6.78021 7.96271
upperback 1.5574 10.0951 -1.4038
thorax -3.92418 4.91312 -7.40267
lowerneck -15.4322 4.99795 -8.28808
upperneck 47.8167 14.5902 3.24951
head 20.9731 5.48428 6.53476
rclavicle -1.3746e-013 1.15295e-014
rhumerus -29.888 -7.03867 -77.5538
rradius 43.9807
rwrist 3.13575
rhand -15.6828 8.39836
rfingers 7.12502
rthumb 10.5061 -21.3191
lclavicle -1.3746e-013 1.15295e-014
lhumerus -43.6462 13.3655 76.2836
lradius 36.9555
lwrist -3.82368
lhand -20.4905 25.8029
lfingers 7.12502
lthumb 5.86624 55.7017
rfemur -4.07974 0.449002 18.3063
rtibia 22.9296
rfoot -13.6312 -3.60263
rtoes -14.0276
lfemur -21.0876 -20.6916 -13.7451
ltibia 49.3539
lfoot -8.46574 -21.8988
ltoes 3.20956
732
root -13.6264 17.8037 14.7268 345.397 73.4227 -15.2956
lowerback 12.8222 6.83875 8.07166
upperback 1.51368 10.1726 -1.44676
thorax -3.8422 4.95322 -7.49188
lowerneck -15.5564 4.94875 -8.19635
upperneck 47.9499 14.4229 3.34414
head 21.1196 5.41624 6.56529
rclavicle 8.32411e-014 -2.44505e-014
rhumerus -29.8474 -7.41213 -77.4112
rradius 43.7673
rwrist 3.28161
rhand -15.6943 8.25181
rfingers 7.12502
rthumb 10.495 -21.4662
lclavicle 8.32411e-014 -2.44505e-014
lhumerus -43.6699 13.3631 76.1007
lradius 36.8412
lwrist -3.82806
lhand -20.3422 25.866
lfingers 7.12502
lthumb 6.00944 55.7607
rfemur -4.41327 0.833199 18.0655
rtibia 22.8853
rfoot -13.4704 -2.69225
rtoes -14.0489
lfemur -20.7642 -21.032 -13.8162
ltibia 49.7106
lfoot -7.83275 -22.5632
ltoes 1.23737
